# xmcd CD database file
#
# Track frame offsets:
#	150
#	15647
#	30655
#	49107
#	65275
#	79350
#	94930
#	111745
#	124207
#	135587
#	153562
#	166545
#	180020
#	197915
#	208270
#	218472
#	230352
#	246217
#	261305
#	277947
#
# Disc length: 3888 seconds
#
# Revision: 0
# Processed by: cddbd v1.4PL0 Copyright (c) Steve Scherf et al.
# Submitted via: Feurio! 1.63 - http://www.feurio.com
#
DISCID=170f2e14
DTITLE=Billy Mack and The Texans - Line Dance!
DYEAR=1997
DGENRE=country
TTITLE0=Past The Point Of Rescue
TTITLE1=Tonight We Might Just Fall In Love
TTITLE2=All You Have To Do
TTITLE3=Standing Outside The Fire
TTITLE4=Ain't Going Down (Till The Sun Comes Up)
TTITLE5=Cotton Eye Joe
TTITLE6=The Rambler
TTITLE7=Streets Of Bakersfield
TTITLE8=Baton Rouge
TTITLE9=Swamp Thing
TTITLE10=Small Town Saturday Night
TTITLE11=Guitars, Cadillacs
TTITLE12=Chattahoochee
TTITLE13=Not Counting You
TTITLE14=Tall Tall Trees
TTITLE15=Summertime Blues
TTITLE16=American Honky Tonk Bar Association
TTITLE17=Achy Breaky Heart
TTITLE18=Living On Love
TTITLE19=Driving My Life Away
EXTD=
EXTT0=Footboogie
EXTT1=Cowgirl's Twist
EXTT2=Cowboy Rhythm (Fruity Cowboy)
EXTT3=Walking The Line
EXTT4=Ain't Going Down
EXTT5=Cotton-Eyed Joe
EXTT6=Tush Push
EXTT7=2 Step
EXTT8=Cowboy Charleston
EXTT9=Swamp Thang
EXTT10=Ruby Ruby
EXTT11=Rock Around The Clock
EXTT12=Chattahoochee
EXTT13=Slap Leather
EXTT14=Flyin' Trees
EXTT15=Chattahoochee
EXTT16=Electric Horseman
EXTT17=Achy Breaky Heart
EXTT18=Electric Slide
EXTT19=High Test Love
PLAYORDER=
